# xmcd
#
# Track frame offsets: 
#        183
#        15115
#        31850
#        64605
#        88345
#        106835
#        136210
#        149795
#        162460
#        179508
#        197165
#        220995
#        233348
#
# Disc length: 3641 seconds
#
# Revision: 10
# Processed by: cddbd v1.5.2PL0 Copyright (c) Steve Scherf et al.
# Submitted via: ExactAudioCopy v0.99pb3
#
DISCID=b00e370d
DTITLE=Various Artist - Ave Maria (Beliebte Chore)
DYEAR=1962
DGENRE=Classical
TTITLE0=Lisa Otto HandelChor and RSO Berlin G¨¹nther Arndt - Ave Maria (
TTITLE0=Bach-Gounod)
TTITLE1=M¨¹nchener Bach-Orch and -Orch. K.Richter - Messe h-moll 'Et inc
TTITLE1=arnatus est' (Bach)
TTITLE2=M¨¹nchener Bach-Orch. Karl Richter - Weihnachtsorat 'Hirtenmus
TTITLE2=ik' (Sinfonia) (Bach)
TTITLE3=M.Freni T.Berganza Orch. 'Scarlatti' Napoli E.Gracis - Stabat 
TTITLE3=mater 'Sancta mater istud agas' (Pergolesi)
TTITLE4=Handelchor Berlin G¨¹nther Arndt - Ave Maria (Bruckner)
TTITLE5=Chor and RSO d. Bayr. Rundf. Rafael Kubelik - Satbat mater 'Virg
TTITLE5=o virginum praeclara' (Dvor¨¢k)
TTITLE6=Hertha T?pper, M¨¹nchener Bach-Chor and -Orch. K.Richter - Magni
TTITLE6=ficat BWV243 'Magnificat'(Bach)
TTITLE7=Hertha T?pper, M¨¹nchener Bach-Chor&Orch. K.Richter - Magnific
TTITLE7=at BWV243 'Et exsultavit apiritus meus' (Bach)
TTITLE8=G¨¹nther Arndt-Chor G¨¹nther Arndt - Marienlieder f. gem. Chor
TTITLE8=Op.22 5. 'Ruf zur Maria' (Bramhs)
TTITLE9=Rita Streich Regensburger Domspatzen Kurt Gaebel - Ave Maria (
TTITLE9=Mozart)
TTITLE10=Lisa Otto Berliner Handelchor G¨¹nther Arndt - Ave Maria D839
TTITLE10=(Schubert)
TTITLE11=Schola Cantorum Basiliensis August Wenzinger - Weihnachtskant
TTITLE11=ate 'Sinfonia' (Stradella)
TTITLE12=Maria Stader RSO Berlin Ferenc Fricsay - Exsultate Jubilate K
TTITLE12=V165 'Tu virginum corona' and 'Alleluja' (Mozart)
EXTD=YEAR: 1962
EXTT0=Johann Sebastian Bach\nCharles Gounod
EXTT1=Johann Sebastian Bach
EXTT2=Johann Sebastian Bach
EXTT3=Giovanni Battista Pergolesi
EXTT4=Anton Bruckner
EXTT5=Antoni Dvorak
EXTT6=Johann Senastian Bach
EXTT7=Johann Sebastian Bach
EXTT8=Johannes Brahms
EXTT9=Wolfgang Amadeus Mozart
EXTT10=Franz Schubert
EXTT11=Alessandro Stradella
EXTT12=Wolfgang Amadeus Mozart
PLAYORDER=
